<svg xmlns="http://www.w3.org/2000/svg" viewBox="0 0 511.997 511.997"><path d="M38.238 0c-4.706 0-8.212 3.835-7.794 8.521l39.671 444.978c.418 4.687 4.468 9.552 9.004 10.811l168.344 46.742c4.535 1.259 11.954 1.259 16.49.003l168.856-46.819c4.535-1.258 8.59-6.122 9.007-10.808L481.553 8.521C481.974 3.835 478.464 0 473.758 0H38.238zm358.83 102.054c-.375 4.18-1.023 11.437-1.441 16.124l-1.045 11.675c-.421 4.685-1.02 11.386-1.336 14.889-.315 3.504-.614 6.371-.669 6.371H184.39c-4.706 0-8.212 3.835-7.794 8.521l3.667 40.99c.418 4.685 4.612 8.521 9.317 8.521h190.299c4.191 0 7.312 3.421 6.932 7.601-.382 4.18-1.034 11.439-1.451 16.124l-11.791 132.15c-.421 4.687-.953 10.674-1.182 13.306-.234 2.63-4.134 5.811-8.669 7.069l-99.474 27.582a2971.712 2971.712 0 01-8.373 2.312c-.07.015-3.836-1.003-8.373-2.26l-99.58-27.632c-4.535-1.258-8.587-6.122-9.004-10.809l-6.41-71.945c-.418-4.687 3.092-8.522 7.798-8.522h39.751c4.706 0 8.896 3.835 9.317 8.522l2.514 28.164c.418 4.687 4.475 9.524 9.019 10.751l46.579 12.579a1851.25 1851.25 0 008.296 2.231c.021 0 3.753-1.006 8.296-2.233l46.663-12.609c4.541-1.227 8.602-6.066 9.023-10.751l5.06-56.427c.421-4.687-3.085-8.522-7.791-8.522H137.765c-4.706 0-8.896-3.836-9.314-8.521l-12.416-139.126c-.418-4.687-1.066-11.942-1.441-16.124-.371-4.18 3.172-7.601 7.878-7.601H389.191c4.705-.002 8.25 3.418 7.877 7.6z" fill="#dd512a"/></svg>