<svg role="img" viewBox="0 0 60 55" fill="none" xmlns="http://www.w3.org/2000/svg"><path d="M49.3308 17.8086C48.6923 17.5831 48.0483 17.3742 47.3996 17.1821C47.5086 16.7238 47.6089 16.271 47.6979 15.8262C49.1599 8.52152 48.2042 2.63676 44.9397 0.69922C41.8096 -1.15824 36.6908 0.778584 31.5211 5.40944C31.0116 5.86665 30.5134 6.33703 30.027 6.82014C29.7013 6.49889 29.37 6.18387 29.033 5.87525C23.6148 0.923804 18.184 -1.16306 14.923 0.780031C11.7958 2.64328 10.8698 8.17536 12.186 15.0981C12.317 15.7838 12.4648 16.4658 12.6295 17.1437C11.8607 17.3686 11.119 17.6079 10.4091 17.8626C4.0567 20.1422 0 23.7146 0 27.4201C0 31.2471 4.35505 35.0858 10.9713 37.4134C11.5077 37.6013 12.0486 37.7755 12.5934 37.9357C12.4164 38.6658 12.2593 39.4009 12.1223 40.14C10.8675 46.9426 11.8474 52.344 14.9661 54.1954C18.1873 56.1074 23.5937 54.1423 28.8579 49.4058C29.2848 49.0208 29.7022 48.6248 30.1099 48.2183C30.6367 48.7414 31.1775 49.2493 31.7318 49.7414C36.8312 54.2576 41.8673 56.0813 44.983 54.2248C48.2011 52.3073 49.2471 46.5048 47.8892 39.4453C47.7822 38.8922 47.6623 38.3419 47.5294 37.7948C47.9091 37.679 48.2818 37.5598 48.645 37.4358C55.5233 35.0904 59.9986 31.2983 59.9986 27.4201C59.9986 23.701 55.8109 20.1046 49.3308 17.8086V17.8086ZM47.839 34.9319C47.5109 35.0436 47.1744 35.1514 46.8312 35.2564C46.0719 32.7821 45.0472 30.1512 43.7931 27.4328C44.9898 24.7793 45.9751 22.182 46.7131 19.7239C47.3269 19.9068 47.9225 20.0995 48.4967 20.3029C54.0489 22.2703 57.4355 25.1788 57.4355 27.4201C57.4355 29.8072 53.778 32.9063 47.839 34.9319V34.9319ZM45.3749 39.9576C45.9753 43.0791 46.0609 45.9015 45.6632 48.108C45.306 50.0907 44.5874 51.4124 43.6987 51.9419C41.808 53.0684 37.7644 51.6041 33.4035 47.7416C32.888 47.2841 32.3849 46.8119 31.8949 46.3256C33.5856 44.4225 35.2752 42.2102 36.9242 39.7531C39.8248 39.4882 42.565 39.055 45.05 38.4637C45.1724 38.972 45.2811 39.4704 45.3749 39.9576V39.9576ZM20.4548 51.7472C18.6075 52.4185 17.1362 52.4378 16.2467 51.91C14.3542 50.7866 13.5674 46.4496 14.6406 40.6321C14.7682 39.9447 14.9142 39.261 15.0786 38.5819C17.5362 39.1416 20.2566 39.5439 23.1639 39.7866C24.8242 42.1909 26.5625 44.4008 28.3144 46.336C27.9421 46.7068 27.561 47.0681 27.1714 47.4196C24.8434 49.5139 22.5107 50.9999 20.4548 51.7472V51.7472ZM11.8005 34.9172C8.87487 33.8879 6.45876 32.5503 4.8027 31.0906C3.31445 29.779 2.5633 28.4766 2.5633 27.4201C2.5633 25.1713 5.82033 22.3031 11.2528 20.3538C11.9121 20.1174 12.602 19.8942 13.318 19.6848C14.069 22.1984 15.0538 24.8266 16.2423 27.4842C15.0383 30.1812 14.0394 32.8513 13.2813 35.3946C12.7839 35.248 12.2902 35.0888 11.8005 34.9172V34.9172ZM14.7015 14.5913C13.574 8.66023 14.3228 4.18617 16.2074 3.06326C18.2145 1.86725 22.653 3.57249 27.3312 7.84801C27.6363 8.12745 27.9364 8.41255 28.2314 8.70317C26.4882 10.6299 24.7658 12.8233 23.1203 15.2134C20.2985 15.4826 17.5974 15.9149 15.114 16.4941C14.961 15.8636 14.8235 15.2292 14.7015 14.5915V14.5913ZM40.5823 21.1691C39.9957 20.1263 39.3874 19.0965 38.7577 18.0807C40.672 18.3299 42.5062 18.6606 44.2286 19.0649C43.7116 20.7708 43.067 22.5542 42.3084 24.3828C41.7539 23.2998 41.1784 22.2284 40.5823 21.1691V21.1691ZM30.0281 10.5886C31.2103 11.9069 32.3943 13.3787 33.5589 14.9756C31.1965 14.8607 28.8301 14.8603 26.4676 14.9741C27.6333 13.3919 28.8275 11.9221 30.0281 10.5886ZM19.4063 21.1872C18.8176 22.238 18.2529 23.3027 17.7125 24.3806C16.9662 22.5586 16.3276 20.767 15.8061 19.0369C17.5179 18.6427 19.3435 18.3204 21.2456 18.0758C20.6089 19.0979 19.9956 20.1352 19.4063 21.187V21.1872ZM21.3002 36.9519C19.335 36.7262 17.4821 36.4205 15.7707 36.037C16.3004 34.276 16.9531 32.4463 17.7155 30.5852C18.258 31.6639 18.8251 32.7293 19.4163 33.7805C20.0243 34.8612 20.6538 35.9197 21.3002 36.9519ZM30.0989 44.4373C28.8839 43.0883 27.6722 41.5958 26.4889 39.9907C27.6378 40.037 28.8089 40.0607 29.9993 40.0607C31.2222 40.0607 32.4311 40.0324 33.621 39.9779C32.4527 41.612 31.2731 43.1066 30.0989 44.4373ZM42.3325 30.4902C43.1345 32.3717 43.8105 34.1918 44.3472 35.9226C42.6077 36.3313 40.7294 36.6603 38.7504 36.9047C39.3846 35.8699 39.9987 34.8223 40.5923 33.7624C41.1959 32.6851 41.7761 31.5941 42.3325 30.4902V30.4902ZM38.3722 32.4444C37.4633 34.0694 36.5034 35.6635 35.4939 37.2243C33.6652 37.3576 31.8325 37.4238 29.9993 37.4228C28.1321 37.4228 26.3159 37.363 24.5671 37.2462C23.5312 35.6891 22.553 34.0921 21.6344 32.4588H21.6346C20.7204 30.8342 19.8665 29.1744 19.0746 27.483C19.8644 25.7913 20.7158 24.1307 21.6269 22.5048L21.6267 22.505C22.5374 20.8787 23.5079 19.2886 24.5359 17.7381C26.3202 17.5992 28.1499 17.5268 29.9991 17.5268H29.9993C31.8569 17.5268 33.689 17.5999 35.4728 17.7398C36.4904 19.288 37.4547 20.8726 38.3637 22.4908C39.2778 24.1131 40.1405 25.7656 40.9502 27.4456C40.1488 29.1428 39.2889 30.8101 38.3722 32.4444V32.4444ZM43.6595 2.98461C45.6685 4.17725 46.4499 8.98661 45.1876 15.2935C45.107 15.6959 45.0165 16.1057 44.9181 16.5214C42.4286 15.9299 39.7256 15.4901 36.8956 15.2168C35.2471 12.8004 33.5387 10.6036 31.8239 8.70172C32.2733 8.25581 32.7334 7.82147 33.2038 7.39909C37.6334 3.43161 41.7733 1.86508 43.6595 2.98461V2.98461ZM29.9993 21.9056C32.9582 21.9056 35.357 24.3746 35.357 27.4201C35.357 30.4656 32.9582 32.9345 29.9993 32.9345C27.0404 32.9345 24.6416 30.4656 24.6416 27.4201C24.6416 24.3746 27.0404 21.9056 29.9993 21.9056V21.9056Z" fill="#00D8FF"></path></svg>